<?xml version="1.0" standalone="no"?>
<!DOCTYPE svg PUBLIC "-//W3C//DTD SVG 20010904//EN"
 "http://www.w3.org/TR/2001/REC-SVG-20010904/DTD/svg10.dtd">
<svg version="1.0" xmlns="http://www.w3.org/2000/svg"
 width="192.000000pt" height="192.000000pt" viewBox="0 0 192.000000 192.000000"
 preserveAspectRatio="xMidYMid meet">
<metadata>
Created by potrace 1.11, written by Peter Selinger 2001-2013
</metadata>
<g transform="translate(0.000000,192.000000) scale(0.100000,-0.100000)"
fill="#000000" stroke="none">
<path d="M0 960 l0 -960 960 0 960 0 0 960 0 960 -960 0 -960 0 0 -960z m1208
204 c25 -17 52 -70 52 -104 0 -15 -7 -20 -25 -20 -19 0 -25 5 -25 20 0 34 -44
70 -85 70 -64 0 -107 -67 -72 -113 6 -9 42 -26 78 -36 86 -25 106 -36 124 -71
36 -70 6 -168 -60 -196 -101 -42 -215 20 -215 118 0 23 4 28 25 28 20 0 25 -5
25 -25 0 -14 11 -37 25 -50 19 -20 34 -25 75 -25 61 0 90 23 90 73 0 45 -20
61 -107 87 -89 27 -123 61 -123 121 0 73 36 126 95 142 30 8 97 -2 123 -19z
m-350 -5 c51 -32 68 -128 31 -188 -18 -30 -19 -35 -5 -50 9 -10 18 -45 21 -82
3 -35 8 -79 10 -96 3 -30 1 -33 -24 -33 -27 0 -29 3 -35 53 -3 28 -6 65 -6 81
0 51 -24 66 -107 66 l-73 0 0 -100 0 -100 -25 0 -25 0 0 236 0 237 108 -5 c68
-3 115 -10 130 -19z"/>
<path d="M670 1045 l0 -75 79 0 c86 0 97 6 107 57 6 30 -8 71 -30 85 -6 4 -44
8 -83 8 l-73 0 0 -75z"/>
</g>
</svg>
